PathFileType	4	(X/Y/Z)	Walk2.trc
DataRate	CameraRate	NumFrames	NumMarkers	Units	OrigDataRate	OrigDataStartFrame	OrigNumFrames
200.000000	200.000000	4	59	mm	200.000000	218	381
Frame#	Times		LFHD		RFHD		LBHD		RBHD		C7		T10		CLAV		STRN		RBack		LASI		RASI		LPSI		RPSI		RACR1		RUA1		RElbow		RElbowM		RFA1		RWRR		RWRU		RCAR		LACR1		LUA1		LElbow		LElbowM		LFA1		LWRR		LWRU		LCAR		RTH1		RTH3		RTH2		RTH4		RLFC		RTB1		RTB3		RTB2		RTB4		RLMAL		RMMAL		RCAL		RMT1		RMT5		RToe		LTH1		LTH3		LTH2		LTH4		LLFC		LTB1		LTB3		LTB2		LTB4		LLMAL		LCAL		LMT5		LToe		LMMAL		LMT1
			X1	Y1	Z1	X2	Y2	Z2	X3	Y3	Z3	X4	Y4	Z4	X5	Y5	Z5	X6	Y6	Z6	X7	Y7	Z7	X8	Y8	Z8	X9	Y9	Z9	X10	Y10	Z10	X11	Y11	Z11	X12	Y12	Z12	X13	Y13	Z13	X14	Y14	Z14	X15	Y15	Z15	X16	Y16	Z16	X17	Y17	Z17	X18	Y18	Z18	X19	Y19	Z19	X20	Y20	Z20	X21	Y21	Z21	X22	Y22	Z22	X23	Y23	Z23	X24	Y24	Z24	X25	Y25	Z25	X26	Y26	Z26	X27	Y27	Z27	X28	Y28	Z28	X29	Y29	Z29	X30	Y30	Z30	X31	Y31	Z31	X32	Y32	Z32	X33	Y33	Z33	X34	Y34	Z34	X35	Y35	Z35	X36	Y36	Z36	X37	Y37	Z37	X38	Y38	Z38	X39	Y39	Z39	X40	Y40	Z40	X41	Y41	Z41	X42	Y42	Z42	X43	Y43	Z43	X44	Y44	Z44	X45	Y45	Z45	X46	Y46	Z46	X47	Y47	Z47	X48	Y48	Z48	X49	Y49	Z49	X50	Y50	Z50	X51	Y51	Z51	X52	Y52	Z52	X53	Y53	Z53	X54	Y54	Z54	X55	Y55	Z55	X56	Y56	Z56	X57	Y57	Z57	X58	Y58	Z58	X59	Y59	Z59

218	1.09	35.732	1430.1	-41.172	26.044	1421.4	55.109	-86.125	1344.8	-70.236	-98.864	1341.2	62.027	-125.11	1257.8	-4.2153	-208.42	1060.5	11.783	18.056	1175.7	1.7376	69.793	1067.9	6.4826	-176.23	1138.5	115.45	-21.571	798.42	-149.47	9.3862	807.31	164.2	-268.13	850.82	-22.092	-252.64	842.67	83.877	-62.2	1207.6	178.78	-67.051	1070.5	265.61	-84.63	947.89	304.56	-133.6	915.1	233.69	-34.099	829.2	325.08	-22.226	725.31	299.76	-62.228	734.21	360.17	-20.528	673.45	358.12	-54.66	1197	-187.87	-17.836	1034.1	-251.68	-40.479	914.36	-272.15	-66.421	887.17	-205.98	38.193	835.92	-299.47	99.733	741.22	-279.37	55.644	726.98	-321.76	107.86	695.74	-326.31	-55.388	622.65	224.05	-12.627	462.58	169.24	18.956	560.75	186.86	-36.539	540.69	200.76	-1.1161	385.12	143.49	77.097	304.94	90.507	111.27	138.17	71.851	57.52	208.17	130.98	91.325	219.37	80.979	83.489	60.427	104.43	94.093	76.173	23.446	36.482	24.077	55.878	199.59	58.604	38.901	177.28	36.842	123.48	246.75	73.54	75.522	-106.05	635.84	-198.08	-130.8	468.81	-153.54	-64.041	552.4	-157.59	-118.34	551.64	-180.25	-128.84	367.74	-117.96	-158.85	269.4	-48.383	-263.45	135.5	-31.583	-233.25	209.81	-98.359	-215.51	202.93	-39.125	-348.07	96.613	-60.182	-392.29	104.58	-15.338	-290.65	24.646	-74.989	-194.48	25.835	-15.622	-320.22	105.28	18.071	-245.01	35.392	7.4361
219	1.095	41.212	1430.1	-40.598	31.598	1421.4	55.702	-80.563	1344.6	-69.542	-93.209	1341	62.729	-119.38	1257.8	-3.2926	-202.74	1060.5	12.583	23.733	1175.6	2.4029	75.534	1067.8	7.179	-170.33	1138.4	116.34	-16.079	798.48	-149.18	15.606	806.95	164	-262.51	850.16	-21.437	-246.71	842.34	84.592	-56.217	1207.3	179.61	-60.823	1070	266.25	-78.346	947.43	305.08	-127.29	914.62	234.21	-27.794	828.77	325.58	-15.839	724.89	300.23	-55.854	733.77	360.65	-14.14	673.05	358.59	-49.379	1196.9	-187.14	-12.976	1033.8	-250.94	-35.832	914.27	-271.48	-61.852	887.09	-205.27	42.872	835.76	-298.65	104.28	741.04	-278.57	60.181	726.79	-320.98	112.4	695.59	-325.53	-48.204	623.15	223.58	-5.5022	463.15	168.67	25.907	561.5	185.64	-29.3	541.28	200.12	4.4604	385.32	143.64	81.464	304.34	89.947	113.7	137.19	71.208	61.271	207.84	130.75	94.75	218.62	80.415	85.033	59.999	104.17	95.49	75.23	23.052	37.029	24.754	55.878	200.93	55.255	38.002	178.36	34.612	123.1	248.8	69.065	74.345	-99.816	635.68	-198.03	-123.63	468.42	-154.01	-57.361	552.39	-157.75	-111.63	551.39	-180.47	-121.32	367.16	-118.82	-152.6	269.04	-49.363	-259.67	137.15	-32.571	-228.25	211.01	-99.217	-210.45	203.64	-40.079	-345.07	99.962	-61.027	-388.82	109.29	-16.269	-289.97	25.664	-75.112	-194.7	25.778	-15.493	-316.99	108.08	17.202	-244.56	35.53	7.3299
220	1.1	46.7	1430.1	-40.009	37.158	1421.5	56.306	-74.982	1344.5	-68.841	-87.543	1341	63.437	-113.61	1257.8	-2.3666	-197.08	1060.5	13.367	29.418	1175.6	3.0719	81.281	1067.8	7.8951	-164.43	1138.3	117.23	-10.567	798.59	-148.84	21.797	806.7	163.81	-256.89	849.52	-20.814	-240.8	842.07	85.281	-50.203	1207	180.43	-54.536	1069.6	266.88	-72.01	947.02	305.58	-120.94	914.17	234.71	-21.435	828.39	326.06	-9.3875	724.53	300.66	-49.417	733.35	361.09	-7.6827	672.69	359.03	-44.065	1196.9	-186.41	-8.1855	1033.7	-250.22	-31.27	914.22	-270.78	-57.342	887.08	-204.52	47.436	835.61	-297.83	108.71	740.86	-277.77	64.575	726.61	-320.18	116.8	695.44	-324.75	-40.895	623.8	223.12	1.7206	463.84	168.21	32.938	562.39	184.39	-21.935	542.03	199.56	10.064	385.6	143.85	85.822	303.78	89.464	116.06	136.27	70.657	64.996	207.58	130.6	98.125	217.92	79.935	86.483	59.622	103.97	96.805	74.372	22.725	37.529	25.456	55.923	202.14	52.04	37.191	179.31	32.54	122.87	250.68	64.744	73.252	-93.447	635.56	-197.99	-116.17	468.04	-154.51	-50.487	552.46	-157.89	-104.72	551.17	-180.7	-113.46	366.62	-119.72	-146.01	268.73	-50.415	-255.54	138.92	-33.64	-222.9	212.32	-100.14	-205.05	204.44	-41.109	-341.72	103.49	-61.941	-384.92	114.22	-17.28	-289.14	26.837	-75.276	-194.93	25.721	-15.37	-313.41	111.02	16.248	-244.06	35.693	7.2186
221	1.105	52.199	1430.2	-39.406	42.727	1421.7	56.922	-69.385	1344.5	-68.138	-81.868	1340.9	64.146	-107.8	1257.9	-1.4427	-191.43	1060.6	14.132	35.11	1175.6	3.7394	87.028	1067.8	8.6259	-158.52	1138.3	118.12	-5.039	798.75	-148.44	27.959	806.56	163.63	-251.29	848.89	-20.231	-234.92	841.85	85.934	-44.161	1206.8	181.25	-48.193	1069.2	267.51	-65.623	946.66	306.07	-114.54	913.77	235.19	-15.024	828.05	326.51	-2.8722	724.21	301.05	-42.916	732.98	361.5	-1.1549	672.38	359.42	-38.717	1196.9	-185.69	-3.4614	1033.5	-249.5	-26.791	914.21	-270.07	-52.887	887.13	-203.74	51.885	835.49	-297	113.01	740.69	-276.97	68.827	726.46	-319.38	121.05	695.3	-323.96	-33.502	624.6	222.7	8.9976	464.64	167.85	40.012	563.41	183.14	-14.492	542.9	199.08	15.698	385.96	144.11	90.164	303.25	89.069	118.34	135.38	70.19	68.671	207.35	130.54	101.44	217.26	79.542	87.837	59.294	103.83	98.033	73.599	22.457	37.993	26.158	56.006	203.23	48.996	36.464	180.14	30.653	122.76	252.39	60.635	72.238	-86.936	635.46	-197.94	-108.44	467.69	-155.02	-43.42	552.6	-158.01	-97.595	550.97	-180.94	-105.27	366.12	-120.66	-139.08	268.47	-51.536	-251.06	140.8	-34.79	-217.19	213.73	-101.14	-199.29	205.32	-42.213	-337.98	107.18	-62.925	-380.57	119.36	-18.371	-288.12	28.173	-75.486	-195.16	25.665	-15.264	-309.45	114.08	15.21	-243.47	35.89	7.0977
